<mxfile host="app.diagrams.net" agent="Mozilla/5.0 (Windows NT 10.0; Win64; x64) AppleWebKit/537.36 (KHTML, like Gecko) Chrome/137.0.0.0 Safari/537.36" version="27.1.3">
  <diagram name="第 1 页" id="zdJP6oIZviNP21E2r9Ot">
    <mxGraphModel dx="2350" dy="1121" grid="0" gridSize="10" guides="1" tooltips="1" connect="1" arrows="1" fold="1" page="1" pageScale="1" pageWidth="827" pageHeight="1169" math="0" shadow="0">
      <root>
        <mxCell id="0" />
        <mxCell id="1" parent="0" />
        <mxCell id="uLB4OkpYBu8gUbBFBRwL-1" value="VPSS&#xa;/dev/media2-6" style="whiteSpace=wrap;strokeWidth=2;align=left;verticalAlign=top;" parent="1" vertex="1">
          <mxGeometry x="2641" y="1231" width="888" height="308" as="geometry" />
        </mxCell>
        <mxCell id="uLB4OkpYBu8gUbBFBRwL-2" value="VPSS Scale&#xa;/dev/video21-40" style="whiteSpace=wrap;strokeWidth=2;align=left;verticalAlign=top;" parent="1" vertex="1">
          <mxGeometry x="2661" y="1387" width="848" height="127" as="geometry" />
        </mxCell>
        <mxCell id="uLB4OkpYBu8gUbBFBRwL-3" value="VPSS Subdev" style="whiteSpace=wrap;strokeWidth=2;align=left;verticalAlign=top;" parent="1" vertex="1">
          <mxGeometry x="2719" y="1256" width="731" height="104" as="geometry" />
        </mxCell>
        <mxCell id="uLB4OkpYBu8gUbBFBRwL-4" value="ISP&#xa;/dev/media1" style="whiteSpace=wrap;strokeWidth=2;align=left;verticalAlign=top;" parent="1" vertex="1">
          <mxGeometry x="1522" y="607" width="2053" height="574" as="geometry" />
        </mxCell>
        <mxCell id="uLB4OkpYBu8gUbBFBRwL-5" value="ISP Control" style="whiteSpace=wrap;strokeWidth=2;align=left;verticalAlign=top;" parent="1" vertex="1">
          <mxGeometry x="1682" y="830" width="687" height="326" as="geometry" />
        </mxCell>
        <mxCell id="uLB4OkpYBu8gUbBFBRwL-6" value="ISP Raw" style="whiteSpace=wrap;strokeWidth=2;verticalAlign=top;align=left;" parent="1" vertex="1">
          <mxGeometry x="2404" y="855" width="249" height="276" as="geometry" />
        </mxCell>
        <mxCell id="uLB4OkpYBu8gUbBFBRwL-7" value="rkisp_rawrd0_m&#xa;/dev/video15" style="whiteSpace=wrap;strokeWidth=2;" parent="uLB4OkpYBu8gUbBFBRwL-6" vertex="1">
          <mxGeometry x="46" y="43" width="174" height="78" as="geometry" />
        </mxCell>
        <mxCell id="uLB4OkpYBu8gUbBFBRwL-8" value="rkisp_rawrd2_s&#xa;/dev/video16" style="whiteSpace=wrap;strokeWidth=2;" parent="uLB4OkpYBu8gUbBFBRwL-6" vertex="1">
          <mxGeometry x="49" y="171" width="168" height="78" as="geometry" />
        </mxCell>
        <mxCell id="uLB4OkpYBu8gUbBFBRwL-9" value="ISP Paths" style="whiteSpace=wrap;strokeWidth=2;align=left;verticalAlign=top;" parent="1" vertex="1">
          <mxGeometry x="2688" y="830" width="866" height="326" as="geometry" />
        </mxCell>
        <mxCell id="uLB4OkpYBu8gUbBFBRwL-10" value="ISP Subdev&#xa;/dev/v4l-subdev4" style="whiteSpace=wrap;strokeWidth=2;align=left;verticalAlign=top;" parent="1" vertex="1">
          <mxGeometry x="1580" y="652" width="1927" height="128" as="geometry" />
        </mxCell>
        <mxCell id="uLB4OkpYBu8gUbBFBRwL-11" value="CIF/MIPI-CSI2&#xa;/dev/media0" style="whiteSpace=wrap;strokeWidth=2;align=left;verticalAlign=top;" parent="1" vertex="1">
          <mxGeometry x="20" y="200" width="2696" height="377" as="geometry" />
        </mxCell>
        <mxCell id="uLB4OkpYBu8gUbBFBRwL-12" value="Tool Channels" style="whiteSpace=wrap;strokeWidth=2;align=left;verticalAlign=top;" parent="1" vertex="1">
          <mxGeometry x="40" y="424" width="668" height="128" as="geometry" />
        </mxCell>
        <mxCell id="uLB4OkpYBu8gUbBFBRwL-13" value="Scale Channels" style="whiteSpace=wrap;strokeWidth=2;align=left;verticalAlign=top;" parent="1" vertex="1">
          <mxGeometry x="728" y="424" width="903" height="128" as="geometry" />
        </mxCell>
        <mxCell id="uLB4OkpYBu8gUbBFBRwL-14" value="Raw Streams" style="whiteSpace=wrap;strokeWidth=2;align=left;verticalAlign=top;" parent="1" vertex="1">
          <mxGeometry x="1651" y="424" width="1045" height="128" as="geometry" />
        </mxCell>
        <mxCell id="uLB4OkpYBu8gUbBFBRwL-15" value="MIPI-CSI2&#xa;/dev/v4l-subdev1" style="whiteSpace=wrap;strokeWidth=2;align=left;verticalAlign=top;" parent="1" vertex="1">
          <mxGeometry x="62" y="246" width="2575" height="128" as="geometry" />
        </mxCell>
        <mxCell id="uLB4OkpYBu8gUbBFBRwL-16" value="Sensor&#xa;m01_b_og05b10&#xa;/dev/v4l-subdev3" style="whiteSpace=wrap;strokeWidth=2;" parent="1" vertex="1">
          <mxGeometry x="246" y="20" width="320" height="128" as="geometry" />
        </mxCell>
        <mxCell id="uLB4OkpYBu8gUbBFBRwL-17" value="Source&#xa;SBGGR10_1X10/2592x1944" style="whiteSpace=wrap;strokeWidth=2;" parent="1" vertex="1">
          <mxGeometry x="281" y="45" width="250" height="78" as="geometry" />
        </mxCell>
        <mxCell id="uLB4OkpYBu8gUbBFBRwL-18" value="Sink&#xa;SBGGR10_1X10/2592x1944" style="whiteSpace=wrap;strokeWidth=2;" parent="1" vertex="1">
          <mxGeometry x="281" y="271" width="250" height="78" as="geometry" />
        </mxCell>
        <mxCell id="uLB4OkpYBu8gUbBFBRwL-19" value="Source 1" style="whiteSpace=wrap;strokeWidth=2;" parent="1" vertex="1">
          <mxGeometry x="788" y="283" width="121" height="54" as="geometry" />
        </mxCell>
        <mxCell id="uLB4OkpYBu8gUbBFBRwL-20" value="Source 2" style="whiteSpace=wrap;strokeWidth=2;" parent="1" vertex="1">
          <mxGeometry x="1009" y="283" width="121" height="54" as="geometry" />
        </mxCell>
        <mxCell id="uLB4OkpYBu8gUbBFBRwL-21" value="Source 3" style="whiteSpace=wrap;strokeWidth=2;" parent="1" vertex="1">
          <mxGeometry x="1230" y="283" width="121" height="54" as="geometry" />
        </mxCell>
        <mxCell id="uLB4OkpYBu8gUbBFBRwL-22" value="Source 4" style="whiteSpace=wrap;strokeWidth=2;" parent="1" vertex="1">
          <mxGeometry x="2096" y="283" width="121" height="54" as="geometry" />
        </mxCell>
        <mxCell id="uLB4OkpYBu8gUbBFBRwL-23" value="stream_cif_mipi_id0&#xa;/dev/video0" style="whiteSpace=wrap;strokeWidth=2;" parent="1" vertex="1">
          <mxGeometry x="1686" y="449" width="206" height="78" as="geometry" />
        </mxCell>
        <mxCell id="uLB4OkpYBu8gUbBFBRwL-24" value="stream_cif_mipi_id1&#xa;/dev/video1" style="whiteSpace=wrap;strokeWidth=2;" parent="1" vertex="1">
          <mxGeometry x="1942" y="449" width="206" height="78" as="geometry" />
        </mxCell>
        <mxCell id="uLB4OkpYBu8gUbBFBRwL-25" value="stream_cif_mipi_id2&#xa;/dev/video2" style="whiteSpace=wrap;strokeWidth=2;" parent="1" vertex="1">
          <mxGeometry x="2199" y="449" width="206" height="78" as="geometry" />
        </mxCell>
        <mxCell id="uLB4OkpYBu8gUbBFBRwL-26" value="stream_cif_mipi_id3&#xa;/dev/video3" style="whiteSpace=wrap;strokeWidth=2;" parent="1" vertex="1">
          <mxGeometry x="2455" y="449" width="206" height="78" as="geometry" />
        </mxCell>
        <mxCell id="uLB4OkpYBu8gUbBFBRwL-27" value="rkcif_scale_ch0&#xa;/dev/video4" style="whiteSpace=wrap;strokeWidth=2;" parent="1" vertex="1">
          <mxGeometry x="763" y="449" width="171" height="78" as="geometry" />
        </mxCell>
        <mxCell id="uLB4OkpYBu8gUbBFBRwL-28" value="rkcif_scale_ch1&#xa;/dev/video5" style="whiteSpace=wrap;strokeWidth=2;" parent="1" vertex="1">
          <mxGeometry x="984" y="449" width="171" height="78" as="geometry" />
        </mxCell>
        <mxCell id="uLB4OkpYBu8gUbBFBRwL-29" value="rkcif_scale_ch2&#xa;/dev/video6" style="whiteSpace=wrap;strokeWidth=2;" parent="1" vertex="1">
          <mxGeometry x="1205" y="449" width="171" height="78" as="geometry" />
        </mxCell>
        <mxCell id="uLB4OkpYBu8gUbBFBRwL-30" value="rkcif_scale_ch3&#xa;/dev/video7" style="whiteSpace=wrap;strokeWidth=2;" parent="1" vertex="1">
          <mxGeometry x="1425" y="449" width="171" height="78" as="geometry" />
        </mxCell>
        <mxCell id="uLB4OkpYBu8gUbBFBRwL-31" value="rkcif_tools_id0&#xa;/dev/video8" style="whiteSpace=wrap;strokeWidth=2;" parent="1" vertex="1">
          <mxGeometry x="75" y="449" width="166" height="78" as="geometry" />
        </mxCell>
        <mxCell id="uLB4OkpYBu8gUbBFBRwL-32" value="rkcif_tools_id1&#xa;/dev/video9" style="whiteSpace=wrap;strokeWidth=2;" parent="1" vertex="1">
          <mxGeometry x="291" y="449" width="166" height="78" as="geometry" />
        </mxCell>
        <mxCell id="uLB4OkpYBu8gUbBFBRwL-33" value="rkcif_tools_id2&#xa;/dev/video10" style="whiteSpace=wrap;strokeWidth=2;" parent="1" vertex="1">
          <mxGeometry x="507" y="449" width="166" height="78" as="geometry" />
        </mxCell>
        <mxCell id="uLB4OkpYBu8gUbBFBRwL-34" value="Sink&#xa;SBGGR10_1X10/2592x1944" style="whiteSpace=wrap;strokeWidth=2;" parent="1" vertex="1">
          <mxGeometry x="1664" y="677" width="250" height="78" as="geometry" />
        </mxCell>
        <mxCell id="uLB4OkpYBu8gUbBFBRwL-35" value="Source&#xa;YUYV8_2X8/2592x1944" style="whiteSpace=wrap;strokeWidth=2;" parent="1" vertex="1">
          <mxGeometry x="3104" y="677" width="224" height="78" as="geometry" />
        </mxCell>
        <mxCell id="uLB4OkpYBu8gUbBFBRwL-36" value="Statistics" style="whiteSpace=wrap;strokeWidth=2;" parent="1" vertex="1">
          <mxGeometry x="1965" y="689" width="125" height="54" as="geometry" />
        </mxCell>
        <mxCell id="uLB4OkpYBu8gUbBFBRwL-37" value="rkisp_mainpath&#xa;/dev/video11" style="whiteSpace=wrap;strokeWidth=2;" parent="1" vertex="1">
          <mxGeometry x="2723" y="954" width="170" height="78" as="geometry" />
        </mxCell>
        <mxCell id="uLB4OkpYBu8gUbBFBRwL-38" value="rkisp_selfpath&#xa;/dev/video12" style="whiteSpace=wrap;strokeWidth=2;" parent="1" vertex="1">
          <mxGeometry x="2943" y="954" width="161" height="78" as="geometry" />
        </mxCell>
        <mxCell id="uLB4OkpYBu8gUbBFBRwL-39" value="rkisp_ldcpath&#xa;/dev/video13" style="whiteSpace=wrap;strokeWidth=2;" parent="1" vertex="1">
          <mxGeometry x="3154" y="954" width="158" height="78" as="geometry" />
        </mxCell>
        <mxCell id="uLB4OkpYBu8gUbBFBRwL-40" value="rkisp_iqtool&#xa;/dev/video14" style="whiteSpace=wrap;strokeWidth=2;" parent="1" vertex="1">
          <mxGeometry x="3362" y="954" width="158" height="78" as="geometry" />
        </mxCell>
        <mxCell id="uLB4OkpYBu8gUbBFBRwL-41" value="rkisp-statistics&#xa;/dev/video17" style="whiteSpace=wrap;strokeWidth=2;" parent="1" vertex="1">
          <mxGeometry x="1717" y="954" width="164" height="78" as="geometry" />
        </mxCell>
        <mxCell id="uLB4OkpYBu8gUbBFBRwL-42" value="rkisp-input-params&#xa;/dev/video18" style="whiteSpace=wrap;strokeWidth=2;" parent="1" vertex="1">
          <mxGeometry x="1931" y="954" width="195" height="78" as="geometry" />
        </mxCell>
        <mxCell id="uLB4OkpYBu8gUbBFBRwL-43" value="rkisp-pdaf&#xa;/dev/video19" style="whiteSpace=wrap;strokeWidth=2;" parent="1" vertex="1">
          <mxGeometry x="2176" y="954" width="158" height="78" as="geometry" />
        </mxCell>
        <mxCell id="uLB4OkpYBu8gUbBFBRwL-44" value="Sink" style="whiteSpace=wrap;strokeWidth=2;" parent="1" vertex="1">
          <mxGeometry x="2764" y="1281" width="89" height="54" as="geometry" />
        </mxCell>
        <mxCell id="uLB4OkpYBu8gUbBFBRwL-45" value="Source" style="whiteSpace=wrap;strokeWidth=2;" parent="1" vertex="1">
          <mxGeometry x="3135" y="1281" width="108" height="54" as="geometry" />
        </mxCell>
        <mxCell id="uLB4OkpYBu8gUbBFBRwL-46" value="rkvpss_scale0" style="whiteSpace=wrap;strokeWidth=2;" parent="1" vertex="1">
          <mxGeometry x="2696" y="1435" width="157" height="54" as="geometry" />
        </mxCell>
        <mxCell id="uLB4OkpYBu8gUbBFBRwL-47" value="rkvpss_scale1" style="whiteSpace=wrap;strokeWidth=2;" parent="1" vertex="1">
          <mxGeometry x="2903" y="1435" width="157" height="54" as="geometry" />
        </mxCell>
        <mxCell id="uLB4OkpYBu8gUbBFBRwL-48" value="rkvpss_scale2" style="whiteSpace=wrap;strokeWidth=2;" parent="1" vertex="1">
          <mxGeometry x="3110" y="1435" width="157" height="54" as="geometry" />
        </mxCell>
        <mxCell id="uLB4OkpYBu8gUbBFBRwL-49" value="rkvpss_scale3" style="whiteSpace=wrap;strokeWidth=2;" parent="1" vertex="1">
          <mxGeometry x="3317" y="1435" width="157" height="54" as="geometry" />
        </mxCell>
        <mxCell id="uLB4OkpYBu8gUbBFBRwL-50" value="MIPI-CSI2" style="curved=1;startArrow=none;endArrow=block;exitX=0.5;exitY=1;entryX=0.5;entryY=0;rounded=0;" parent="1" source="uLB4OkpYBu8gUbBFBRwL-17" target="uLB4OkpYBu8gUbBFBRwL-18" edge="1">
          <mxGeometry relative="1" as="geometry">
            <Array as="points" />
          </mxGeometry>
        </mxCell>
        <mxCell id="uLB4OkpYBu8gUbBFBRwL-51" value="" style="curved=1;startArrow=none;endArrow=block;exitX=1;exitY=0.58;entryX=0.5;entryY=0;rounded=0;" parent="1" source="uLB4OkpYBu8gUbBFBRwL-19" target="uLB4OkpYBu8gUbBFBRwL-23" edge="1">
          <mxGeometry relative="1" as="geometry">
            <Array as="points">
              <mxPoint x="1789" y="374" />
            </Array>
          </mxGeometry>
        </mxCell>
        <mxCell id="uLB4OkpYBu8gUbBFBRwL-52" value="" style="curved=1;startArrow=none;endArrow=block;exitX=1;exitY=0.57;entryX=0.5;entryY=0;rounded=0;" parent="1" source="uLB4OkpYBu8gUbBFBRwL-20" target="uLB4OkpYBu8gUbBFBRwL-24" edge="1">
          <mxGeometry relative="1" as="geometry">
            <Array as="points">
              <mxPoint x="2046" y="374" />
            </Array>
          </mxGeometry>
        </mxCell>
        <mxCell id="uLB4OkpYBu8gUbBFBRwL-53" value="" style="curved=1;startArrow=none;endArrow=block;exitX=1;exitY=0.57;entryX=0.5;entryY=0;rounded=0;" parent="1" source="uLB4OkpYBu8gUbBFBRwL-21" target="uLB4OkpYBu8gUbBFBRwL-25" edge="1">
          <mxGeometry relative="1" as="geometry">
            <Array as="points">
              <mxPoint x="2302" y="374" />
            </Array>
          </mxGeometry>
        </mxCell>
        <mxCell id="uLB4OkpYBu8gUbBFBRwL-54" value="" style="curved=1;startArrow=none;endArrow=block;exitX=1;exitY=0.68;entryX=0.5;entryY=0;rounded=0;" parent="1" source="uLB4OkpYBu8gUbBFBRwL-22" target="uLB4OkpYBu8gUbBFBRwL-26" edge="1">
          <mxGeometry relative="1" as="geometry">
            <Array as="points">
              <mxPoint x="2558" y="374" />
            </Array>
          </mxGeometry>
        </mxCell>
        <mxCell id="uLB4OkpYBu8gUbBFBRwL-55" value="" style="curved=1;startArrow=none;endArrow=block;exitX=0.5;exitY=1;entryX=0.5;entryY=0;rounded=0;" parent="1" source="uLB4OkpYBu8gUbBFBRwL-19" target="uLB4OkpYBu8gUbBFBRwL-27" edge="1">
          <mxGeometry relative="1" as="geometry">
            <Array as="points" />
          </mxGeometry>
        </mxCell>
        <mxCell id="uLB4OkpYBu8gUbBFBRwL-56" value="" style="curved=1;startArrow=none;endArrow=block;exitX=0.5;exitY=1;entryX=0.5;entryY=0;rounded=0;" parent="1" source="uLB4OkpYBu8gUbBFBRwL-20" target="uLB4OkpYBu8gUbBFBRwL-28" edge="1">
          <mxGeometry relative="1" as="geometry">
            <Array as="points" />
          </mxGeometry>
        </mxCell>
        <mxCell id="uLB4OkpYBu8gUbBFBRwL-57" value="" style="curved=1;startArrow=none;endArrow=block;exitX=0.5;exitY=1;entryX=0.5;entryY=0;rounded=0;" parent="1" source="uLB4OkpYBu8gUbBFBRwL-21" target="uLB4OkpYBu8gUbBFBRwL-29" edge="1">
          <mxGeometry relative="1" as="geometry">
            <Array as="points" />
          </mxGeometry>
        </mxCell>
        <mxCell id="uLB4OkpYBu8gUbBFBRwL-58" value="" style="curved=1;startArrow=none;endArrow=block;exitX=0;exitY=0.61;entryX=0.5;entryY=0;rounded=0;" parent="1" source="uLB4OkpYBu8gUbBFBRwL-22" target="uLB4OkpYBu8gUbBFBRwL-30" edge="1">
          <mxGeometry relative="1" as="geometry">
            <Array as="points">
              <mxPoint x="1511" y="374" />
            </Array>
          </mxGeometry>
        </mxCell>
        <mxCell id="uLB4OkpYBu8gUbBFBRwL-59" value="" style="curved=1;startArrow=none;endArrow=block;exitX=0;exitY=0.6;entryX=0.5;entryY=0;rounded=0;" parent="1" source="uLB4OkpYBu8gUbBFBRwL-19" target="uLB4OkpYBu8gUbBFBRwL-31" edge="1">
          <mxGeometry relative="1" as="geometry">
            <Array as="points">
              <mxPoint x="158" y="374" />
            </Array>
          </mxGeometry>
        </mxCell>
        <mxCell id="uLB4OkpYBu8gUbBFBRwL-60" value="" style="curved=1;startArrow=none;endArrow=block;exitX=0;exitY=0.6;entryX=0.5;entryY=0;rounded=0;" parent="1" source="uLB4OkpYBu8gUbBFBRwL-20" target="uLB4OkpYBu8gUbBFBRwL-32" edge="1">
          <mxGeometry relative="1" as="geometry">
            <Array as="points">
              <mxPoint x="374" y="374" />
            </Array>
          </mxGeometry>
        </mxCell>
        <mxCell id="uLB4OkpYBu8gUbBFBRwL-61" value="" style="curved=1;startArrow=none;endArrow=block;exitX=0;exitY=0.6;entryX=0.5;entryY=0;rounded=0;" parent="1" source="uLB4OkpYBu8gUbBFBRwL-21" target="uLB4OkpYBu8gUbBFBRwL-33" edge="1">
          <mxGeometry relative="1" as="geometry">
            <Array as="points">
              <mxPoint x="590" y="374" />
            </Array>
          </mxGeometry>
        </mxCell>
        <mxCell id="uLB4OkpYBu8gUbBFBRwL-62" value="" style="curved=1;startArrow=none;endArrow=block;exitX=0.5;exitY=1;entryX=0.5;entryY=0;rounded=0;" parent="1" source="uLB4OkpYBu8gUbBFBRwL-23" target="uLB4OkpYBu8gUbBFBRwL-34" edge="1">
          <mxGeometry relative="1" as="geometry">
            <Array as="points" />
          </mxGeometry>
        </mxCell>
        <mxCell id="uLB4OkpYBu8gUbBFBRwL-63" value="" style="curved=1;startArrow=none;endArrow=block;exitX=0;exitY=0.73;entryX=0.5;entryY=0;rounded=0;" parent="1" source="uLB4OkpYBu8gUbBFBRwL-35" target="uLB4OkpYBu8gUbBFBRwL-37" edge="1">
          <mxGeometry relative="1" as="geometry">
            <Array as="points">
              <mxPoint x="2808" y="780" />
            </Array>
          </mxGeometry>
        </mxCell>
        <mxCell id="uLB4OkpYBu8gUbBFBRwL-64" value="" style="curved=1;startArrow=none;endArrow=block;exitX=0;exitY=0.98;entryX=0.5;entryY=0;rounded=0;" parent="1" source="uLB4OkpYBu8gUbBFBRwL-35" target="uLB4OkpYBu8gUbBFBRwL-38" edge="1">
          <mxGeometry relative="1" as="geometry">
            <Array as="points">
              <mxPoint x="3024" y="780" />
            </Array>
          </mxGeometry>
        </mxCell>
        <mxCell id="uLB4OkpYBu8gUbBFBRwL-65" value="" style="curved=1;startArrow=none;endArrow=block;exitX=0.55;exitY=1;entryX=0.5;entryY=0;rounded=0;" parent="1" source="uLB4OkpYBu8gUbBFBRwL-35" target="uLB4OkpYBu8gUbBFBRwL-39" edge="1">
          <mxGeometry relative="1" as="geometry">
            <Array as="points">
              <mxPoint x="3233" y="780" />
            </Array>
          </mxGeometry>
        </mxCell>
        <mxCell id="uLB4OkpYBu8gUbBFBRwL-66" value="" style="curved=1;startArrow=none;endArrow=block;exitX=1;exitY=0.91;entryX=0.5;entryY=0;rounded=0;" parent="1" source="uLB4OkpYBu8gUbBFBRwL-35" target="uLB4OkpYBu8gUbBFBRwL-40" edge="1">
          <mxGeometry relative="1" as="geometry">
            <Array as="points">
              <mxPoint x="3441" y="780" />
            </Array>
          </mxGeometry>
        </mxCell>
        <mxCell id="uLB4OkpYBu8gUbBFBRwL-67" value="" style="curved=1;startArrow=none;endArrow=block;exitX=0;exitY=0.83;entryX=0.5;entryY=0;rounded=0;" parent="1" source="uLB4OkpYBu8gUbBFBRwL-36" target="uLB4OkpYBu8gUbBFBRwL-41" edge="1">
          <mxGeometry relative="1" as="geometry">
            <Array as="points">
              <mxPoint x="1799" y="780" />
            </Array>
          </mxGeometry>
        </mxCell>
        <mxCell id="uLB4OkpYBu8gUbBFBRwL-68" value="" style="curved=1;startArrow=none;endArrow=block;exitX=1;exitY=0.83;entryX=0.5;entryY=0;rounded=0;" parent="1" source="uLB4OkpYBu8gUbBFBRwL-36" target="uLB4OkpYBu8gUbBFBRwL-43" edge="1">
          <mxGeometry relative="1" as="geometry">
            <Array as="points">
              <mxPoint x="2255" y="780" />
            </Array>
          </mxGeometry>
        </mxCell>
        <mxCell id="uLB4OkpYBu8gUbBFBRwL-69" value="" style="curved=1;startArrow=none;endArrow=block;exitX=0.5;exitY=1;entryX=0.5;entryY=0;rounded=0;" parent="1" source="uLB4OkpYBu8gUbBFBRwL-37" target="uLB4OkpYBu8gUbBFBRwL-44" edge="1">
          <mxGeometry relative="1" as="geometry">
            <Array as="points" />
          </mxGeometry>
        </mxCell>
        <mxCell id="uLB4OkpYBu8gUbBFBRwL-70" value="" style="curved=1;startArrow=none;endArrow=block;exitX=0;exitY=0.63;entryX=0.5;entryY=0;rounded=0;" parent="1" source="uLB4OkpYBu8gUbBFBRwL-45" target="uLB4OkpYBu8gUbBFBRwL-46" edge="1">
          <mxGeometry relative="1" as="geometry">
            <Array as="points">
              <mxPoint x="2775" y="1360" />
            </Array>
          </mxGeometry>
        </mxCell>
        <mxCell id="uLB4OkpYBu8gUbBFBRwL-71" value="" style="curved=1;startArrow=none;endArrow=block;exitX=0;exitY=0.75;entryX=0.5;entryY=0;rounded=0;" parent="1" source="uLB4OkpYBu8gUbBFBRwL-45" target="uLB4OkpYBu8gUbBFBRwL-47" edge="1">
          <mxGeometry relative="1" as="geometry">
            <Array as="points">
              <mxPoint x="2982" y="1360" />
            </Array>
          </mxGeometry>
        </mxCell>
        <mxCell id="uLB4OkpYBu8gUbBFBRwL-72" value="" style="curved=1;startArrow=none;endArrow=block;exitX=0.5;exitY=1;entryX=0.5;entryY=0;rounded=0;" parent="1" source="uLB4OkpYBu8gUbBFBRwL-45" target="uLB4OkpYBu8gUbBFBRwL-48" edge="1">
          <mxGeometry relative="1" as="geometry">
            <Array as="points" />
          </mxGeometry>
        </mxCell>
        <mxCell id="uLB4OkpYBu8gUbBFBRwL-73" value="" style="curved=1;startArrow=none;endArrow=block;exitX=1;exitY=0.75;entryX=0.5;entryY=0;rounded=0;" parent="1" source="uLB4OkpYBu8gUbBFBRwL-45" target="uLB4OkpYBu8gUbBFBRwL-49" edge="1">
          <mxGeometry relative="1" as="geometry">
            <Array as="points">
              <mxPoint x="3396" y="1360" />
            </Array>
          </mxGeometry>
        </mxCell>
      </root>
    </mxGraphModel>
  </diagram>
</mxfile>
